# xmcd
#
# Track frame offsets: 
#        150
#        21128
#        35778
#        55373
#        68688
#        81153
#        96978
#        114910
#        123925
#        144578
#        159640
#        177800
#
# Disc length: 2571 seconds
#
# Revision: 0
# Processed by: cddbd v1.4PL0 Copyright (c) Steve Scherf et al.
# Submitted via: ExactAudioCopy v0.90b4
#
DISCID=9f0a090c
DTITLE=Various Artist - Pisen severu
DYEAR=1995
DGENRE=Country
TTITLE0=Pisen severu
TTITLE1=Pri polarni zari
TTITLE2=Rony
TTITLE3=Kanadska posta
TTITLE4=Trampsky posuci
TTITLE5=Na severu sneznych plani
TTITLE6=Zase praska v krbu drivi
TTITLE7=O nebezpecenstvu hor
TTITLE8=Bila Kanada
TTITLE9=Trampuv sen
TTITLE10=Ztracena stopa
TTITLE11=Vanocni noc
EXTD=
EXTT0=
EXTT1=
EXTT2=
EXTT3=
EXTT4=
EXTT5=
EXTT6=
EXTT7=
EXTT8=
EXTT9=
EXTT10=
EXTT11=
PLAYORDER=
